<svg width="450" height="667" viewBox="0 0 450 667" fill="none" xmlns="http://www.w3.org/2000/svg">
<mask id="mask0_303_68766" style="mask-type:alpha" maskUnits="userSpaceOnUse" x="0" y="0" width="450" height="667">
<rect width="450" height="666.667" fill="#D9D9D9"/>
</mask>
<g mask="url(#mask0_303_68766)">
<g opacity="0.3">
<path d="M-59.8801 348.327C-135.958 229.191 -2.20411 151.519 -2.20411 151.519C-2.20411 151.519 4.56654 143.31 -15.6314 121.341C-63.5476 153.761 -151.722 235.813 -90.3805 348.551C-9.4069 497.373 302.799 542.049 467.559 528.233L850.426 468.009C850.426 468.009 93.0345 587.785 -59.8856 348.331L-59.8801 348.327Z" fill="#00B0BE"/>
<path d="M-84.0448 342.514C-145.386 229.776 -63.5468 153.756 -15.6306 121.335C-17.1051 119.733 -18.6833 118.149 -20.3917 116.597C-30.6812 110.048 -40.8994 104.192 -51.0328 98.9571C-90.1667 130.329 -169.543 211.721 -121.091 327.252C-72.8636 442.238 93.9983 512.709 288.453 518.415C334.908 519.781 762.866 530.834 955.677 443.63C955.677 443.63 728.522 504.543 455.057 509.174C398.094 510.136 358.466 508.608 288.175 501.584C112.954 484.069 -23.7633 453.306 -84.0494 342.513L-84.0448 342.514Z" fill="#00D6DD"/>
<path d="M-121.093 327.256C-169.549 211.725 -90.1684 130.334 -51.0344 98.9614C-62.8472 92.8628 -74.5462 87.6307 -86.1226 83.1954C-121.754 110.03 -208.265 189.531 -157.683 313.06C-111.052 426.931 8.4708 507.46 217.961 520.438C280.423 524.305 578.175 565.653 951.78 444.626C951.78 444.626 692.146 519.271 442.979 519.166C360.031 519.131 286.424 514.668 219.211 507.52C55.4178 490.107 -78.7248 428.263 -121.088 327.257L-121.093 327.256Z" fill="#00D6DD"/>
<path d="M-200.063 376.991C-118.935 502.334 56.7222 557.314 264.221 556.841C318.579 556.716 532.662 580.04 959.979 442.162C959.979 442.162 781.89 505.963 525.663 524.785C392.585 534.56 349.702 526.971 255.943 522.024C22.3775 509.698 -108.346 433.663 -157.719 313.082C-208.301 189.547 -121.79 110.052 -86.159 83.2169C-99.9337 77.9362 -113.526 73.7835 -126.912 70.6347C-168.53 113.536 -280.535 252.648 -200.058 376.992L-200.063 376.991Z" fill="#00EEF0"/>
<path d="M-173.291 357.154C-253.768 232.811 -168.534 113.535 -126.916 70.6336C-332.944 22.1338 -489.461 212.1 -489.461 212.1L-489.852 675.943L963.626 676.876L963.702 441.174C920.325 451.961 607.392 573.597 187.409 537.801C17.1099 523.285 -101.005 468.838 -173.291 357.154Z" fill="#00EEF0"/>
<path d="M-480.424 201.973C-480.424 201.973 -345.087 40.4308 -143.304 62.6622C28.0688 81.5422 71.0987 178.588 56.1075 246.779C50.2794 273.269 21.3443 313.605 -44.4851 287.424C-56.155 283.028 -62.4239 257.479 -24.1169 261.495C-18.5277 262.3 0.13102 260.911 0.235849 247.943C0.269159 243.555 -5.8443 233.969 -19.7151 241.142C-28.1726 245.518 -47.6775 234.662 -34.5347 224.766C-20.4939 214.199 -19.5896 206.716 -24.0778 199.63C-32.4649 186.383 -51.2068 191.235 -55.1989 192.829C-59.1911 194.423 -81.944 200.794 -82.3269 180.04C-81.5255 175.652 -76.1228 155.798 -87.4927 149.704C-98.5344 143.788 -110.25 162.063 -133.385 147.679C-156.521 133.296 -142.068 92.1228 -208.368 87.16C-339.724 77.337 -450.132 178.857 -480.424 201.973Z" fill="#BAFFFC"/>
</g>
</g>
</svg>
