<svg width="450" height="789" viewBox="0 0 450 789" fill="none" xmlns="http://www.w3.org/2000/svg">
<mask id="mask0_239_1934" style="mask-type:luminance" maskUnits="userSpaceOnUse" x="0" y="0" width="450" height="789">
<path d="M450 0.270508H0V788.821H450V0.270508Z" fill="white"/>
</mask>
<g mask="url(#mask0_239_1934)">
<path d="M-89.8237 240.049C-71.3779 248.378 -36.8237 287.486 94.3847 309.928C135.689 316.991 176.985 293.215 215.118 277.545C218.16 277.429 219.697 280.946 217.472 282.615C216.222 283.554 210.726 285.943 208.847 286.813C198.897 291.418 185.297 295.535 176.272 300.875C175.73 301.194 175.351 300.786 175.739 301.914L220.422 301.779C220.401 301.914 220.493 302.071 220.497 302.233C220.51 303.783 221.097 306.038 221.38 307.677C221.397 307.765 220.939 308.081 220.964 308.2L208.797 308.935C189.33 311.932 169.451 312.317 149.889 314.287C144.993 314.779 141.172 316.418 136.655 317.992L169.647 327.252L200.022 337.063L200.097 337.517L198.939 342.78C198.797 342.742 198.593 342.888 198.447 342.849C194.139 341.684 188.61 340.622 184.143 339.706C182.701 339.41 172.38 337.244 171.997 337.69L185.818 354.795C183.176 355.099 183.014 355.692 181.126 356.834C180.843 357.008 179.947 356.865 179.651 357.038C171.818 348.82 163.326 341.357 152.585 336.551C150.051 335.416 146.605 334.05 143.976 333.116C118.655 324.124 91.0722 325.713 64.7221 329.78L89.1805 350.517C89.1805 350.667 89.2638 350.821 89.2555 350.971C89.1597 352.306 85.8221 354.349 86.0596 356.05C85.9055 355.961 85.2346 356.273 85.0763 356.184C71.943 348.682 60.1805 338.221 45.2971 333.85C48.4513 344.261 50.4638 355.919 55.343 365.756C61.818 378.818 73.8763 390.291 82.0346 402.525C82.1138 402.645 82.0305 402.86 82.1096 402.979C80.2221 402.964 78.4388 405.534 77.5638 405.926C77.218 406.08 76.5221 406 76.0888 406.13L56.5013 387.325L54.9471 387.248L57.793 442.053C57.5346 442.007 57.118 442.211 56.8097 442.188C54.8472 442.038 52.7638 442.122 50.8388 442.549L44.418 399.836C41.8555 402.81 40.193 407.023 38.6138 410.597C34.1596 420.689 30.5888 431.138 26.2305 441.276C24.2471 445.154 19.8096 443.969 19.7555 439.691C19.743 438.871 20.2055 437.755 20.4346 436.913C26.7763 413.698 42.5096 389.017 35.7221 364.606C13.1763 283.539 -77.3695 269.692 -109.645 262.336C-109.645 262.336 -90.6445 239.675 -89.8195 240.049H-89.8237Z" fill="#914F2B"/>
<path d="M62.252 303.714C76.9853 303.983 90.5353 298.866 90.5353 298.866L94.1811 302.09C94.1811 302.09 87.6895 305.584 75.0145 310.389C62.3353 315.194 62.2561 303.718 62.2561 303.718L62.252 303.714Z" fill="#914F2B"/>
<path d="M50.3465 442.615L56.5881 499.729C57.7006 499.744 57.6881 499.152 57.8465 498.375C58.4631 495.305 57.8131 488.595 57.8506 485.063C57.9923 471.871 58.0381 458.366 57.2798 445.124C57.2214 444.135 56.9256 443.166 56.809 442.184C57.1131 442.208 57.534 442.004 57.7923 442.05C61.4923 442.692 70.0673 450.456 72.5798 453.319C91.6256 475.01 87.5298 503.58 69.1006 524.217C67.8131 525.66 60.2089 533.262 58.8173 533.209C57.6423 533.162 49.5548 526.418 48.234 525.16C29.0548 506.877 20.459 480.162 35.1173 457.024C37.7256 452.907 45.4298 444.07 50.3506 442.615H50.3465Z" fill="#ABDA38"/>
<path d="M76.08 406.13C76.5133 405.999 77.2092 406.084 77.555 405.926C86.7508 420.642 95.3758 435.751 105.355 450.036C105.597 450.378 107.638 453.625 108.238 452.706C100.301 435.835 92.4216 418.684 82.1008 402.979C82.0216 402.86 82.1091 402.644 82.0258 402.525C88.7925 402.148 95.3425 403.845 101.409 406.419C127.505 417.491 136.301 443.28 130.58 468.168C130.005 470.661 126.072 482.992 124.38 484.142C123.722 484.589 119.142 483.161 117.967 482.838C82.005 472.939 60.9175 442.214 75.555 408.392C75.8842 407.63 76.4008 407.057 76.08 406.13Z" fill="#289649"/>
<path d="M220.426 301.776C220.776 299.31 227.251 290.426 229.28 288.256C248.197 268.019 279.876 267.942 303.093 281.773C304.776 282.778 313.797 289.26 314.03 290.461C314.547 293.104 304.497 304.684 302.105 306.943C283.268 324.729 253.268 329.988 230.039 316.23C227.955 314.995 221.376 310.267 220.964 308.193C220.939 308.078 221.397 307.762 221.38 307.67C230.184 305.889 239.197 304.834 248.005 303.061C257.401 301.172 266.643 298.313 276.134 296.855L281.118 295.016C279.751 295.054 278.168 294.808 276.822 294.912C260.847 296.147 245.851 298.19 230.101 300.914C226.93 301.464 223.668 301.683 220.497 302.222C220.497 302.064 220.405 301.903 220.422 301.768L220.426 301.776Z" fill="#ABDA38"/>
<path d="M200.019 337.064C203.273 335.532 205.977 333.351 209.344 331.935C217.169 328.642 225.731 327.411 234.289 327.83C262.21 329.2 280.098 352.357 282.71 376.603C267.489 382.909 248.089 385.413 231.914 380.969C224.919 379.05 220.139 375.914 214.248 372.205C211.435 370.432 209.794 367.658 207.102 365.307C207.927 364.884 206.952 363.876 206.664 363.403C202.773 356.954 199.102 350.41 198.439 342.85C198.585 342.889 198.785 342.742 198.931 342.781C204.144 344.224 209.885 347.355 215.169 348.967L252.669 361.333C253.119 360.79 251.031 359.578 250.573 359.317C240.177 353.326 227.381 347.913 216.077 343.47C210.789 341.392 205.339 339.664 200.085 337.522L200.01 337.068L200.019 337.064Z" fill="#AADA38"/>
<path d="M207.105 365.306C209.797 367.657 211.434 370.43 214.251 372.204C215.655 376.005 218.288 379.222 219.797 383.007C226.597 400.067 221.63 421.719 210.322 436.297C209.072 437.905 206.468 441.429 204.293 441.106C202.422 440.829 193.988 435.366 192.093 433.95C183.172 427.298 174.738 417.51 171.222 407.369C172.759 405.826 179.493 405.249 179.593 403.202C179.697 401.102 176.043 390.748 175.018 388.174C173.818 385.166 168.968 377.59 169.026 375.201C169.043 374.509 172.055 367.318 172.618 366.245C173.288 364.963 178.788 357.538 179.647 357.038C179.938 356.865 180.834 357.007 181.122 356.834L191.93 392.16L195.805 403.141L198.634 409.142C196.001 390.733 191.326 372.685 186.309 354.722C192.063 354.579 202.938 361.659 207.109 365.298L207.105 365.306Z" fill="#289649"/>
<path d="M56.8063 442.187C56.9229 443.164 57.2188 444.138 57.2771 445.127C58.0354 458.365 57.9896 471.873 57.8479 485.066C57.8104 488.598 58.4604 495.307 57.8437 498.378C57.6896 499.155 57.6979 499.751 56.5854 499.732L50.3438 442.618C50.4979 442.572 50.6771 442.587 50.8354 442.549C52.7604 442.122 54.8438 442.041 56.8063 442.187Z" fill="#6EBD2F"/>
<path d="M169.027 375.202C168.973 377.592 173.818 385.167 175.018 388.176C176.043 390.75 179.698 401.103 179.593 403.203C179.489 405.246 172.76 405.827 171.223 407.37C156.252 410.367 140.677 411.606 125.793 407.62C102.339 401.341 85.4559 378.488 85.0684 356.185C85.2225 356.274 85.8934 355.962 86.0517 356.05C102.127 365.184 118.498 374.025 135.314 382.101C136.502 382.251 143.673 386.121 144.081 385.606C144.535 385.04 143.164 384.444 142.806 384.205C134.835 378.9 126.814 373.06 118.635 368.012C109.027 362.083 98.635 357.166 89.2434 350.972C89.2559 350.826 89.1684 350.668 89.1684 350.518C110.073 341.384 138.01 344.316 154.881 359.309C159.764 363.649 163.335 368.877 167.156 373.983C167.677 374.679 167.739 375.46 169.018 375.202H169.027Z" fill="#AADA38"/>
<path d="M89.2487 350.973C98.6403 357.167 109.032 362.084 118.64 368.013C126.819 373.056 134.84 378.9 142.811 384.206C143.17 384.444 144.54 385.041 144.086 385.606C143.674 386.122 136.507 382.252 135.32 382.101C118.503 374.026 102.132 365.189 86.057 356.051C85.8195 354.351 89.157 352.308 89.2528 350.973H89.2487Z" fill="#6EBD2F"/>
<path d="M220.496 302.229C223.667 301.69 226.929 301.471 230.1 300.921C245.85 298.197 260.85 296.15 276.821 294.919C278.167 294.815 279.746 295.057 281.117 295.023L276.134 296.862C266.642 298.316 257.4 301.174 248.004 303.067C239.196 304.841 230.184 305.895 221.379 307.676C221.1 306.037 220.513 303.783 220.496 302.232V302.229Z" fill="#6EBD2F"/>
<path d="M200.094 337.518C205.348 339.66 210.798 341.388 216.085 343.465C227.389 347.909 240.185 353.322 250.581 359.313C251.035 359.574 253.123 360.79 252.677 361.329L215.177 348.963C209.894 347.355 204.152 344.22 198.939 342.777L200.098 337.514L200.094 337.518Z" fill="#6EBD2F"/>
<path d="M82.1005 402.98C92.4213 418.684 100.301 435.836 108.238 452.706C107.638 453.626 105.596 450.379 105.355 450.036C95.3755 435.751 86.7505 420.643 77.5547 405.927C78.4297 405.534 80.213 402.964 82.1005 402.98Z" fill="#036134"/>
<path d="M185.813 354.795C185.976 354.776 186.142 354.729 186.305 354.726C191.321 372.689 195.996 390.733 198.63 409.146L195.801 403.144L191.926 392.164L181.117 356.838C183.005 355.695 183.171 355.103 185.809 354.799L185.813 354.795Z" fill="#036134"/>
<path d="M92.5873 303.81C96.4498 299.493 101.416 296.073 105.771 292.16C115.441 283.477 124.587 274.243 133.487 264.883C132.616 264.194 132.787 264.79 132.271 265.16C124.958 270.423 117.458 276.267 110.45 281.888C103.108 287.774 95.9831 293.949 88.9206 300.117C88.7831 299.916 87.9748 299.732 87.8873 299.559C87.8664 299.513 88.1581 299.001 88.054 298.589C84.3998 283.915 92.2623 266.606 103.837 256.43C117.904 244.065 139.529 240.283 158.233 242.884C159.421 243.972 157.958 256.311 157.571 258.408C154.1 277.163 142.7 295.18 122.983 302.533C115.141 305.457 100.166 307.877 92.5831 303.81H92.5873Z" fill="#279649"/>
<path d="M88.9202 300.117C95.9827 293.949 103.108 287.774 110.449 281.888C117.458 276.271 124.958 270.423 132.27 265.16C132.787 264.79 132.616 264.194 133.487 264.883C124.587 274.243 115.441 283.477 105.77 292.16C101.416 296.069 96.4493 299.49 92.5868 303.81C92.4743 303.749 92.3535 303.691 92.241 303.625C90.241 302.398 90.066 301.794 88.916 300.117H88.9202Z" fill="#036134"/>
<path d="M146.024 418.743C148.499 423.968 152.332 428.596 155.416 433.548C162.261 444.543 168.428 455.943 174.316 467.404C173.253 467.854 173.599 467.316 173.207 466.819C167.636 459.783 162.057 452.123 156.891 444.817C151.482 437.16 146.37 429.277 141.316 421.417C141.12 421.579 140.274 421.552 140.136 421.698C140.103 421.736 140.232 422.313 140.007 422.69C131.995 436.118 134.466 455.097 142.724 468.047C152.761 483.782 172.799 493.058 191.903 495.332C193.395 494.574 195.695 482.113 195.949 479.958C198.216 460.694 192.499 440.111 175.411 427.831C168.616 422.948 154.682 416.719 146.024 418.747V418.743Z" fill="#AADA38"/>
<path d="M141.316 421.413C146.371 429.273 151.483 437.16 156.891 444.813C162.054 452.119 167.637 459.779 173.208 466.816C173.6 467.312 173.254 467.851 174.316 467.4C168.429 455.939 162.262 444.539 155.416 433.544C152.333 428.592 148.504 423.964 146.025 418.739C145.896 418.77 145.758 418.797 145.633 418.832C143.304 419.516 142.95 420.063 141.316 421.409V421.413Z" fill="#6EBD2F"/>
<path d="M245.9 483.303C242.021 484.815 238.571 487.181 234.888 489.074C226.709 493.28 218.242 497.058 209.73 500.655C209.405 499.982 209.8 500.205 210.171 499.962C215.413 496.523 221.117 493.079 226.559 489.898C232.259 486.562 238.121 483.419 243.967 480.314C243.85 480.191 243.88 479.656 243.771 479.568C243.742 479.545 243.317 479.621 243.038 479.479C233.2 474.316 219.175 475.693 209.546 480.776C197.842 486.947 190.817 499.47 188.963 511.466C189.509 512.412 198.684 513.971 200.271 514.151C214.467 515.756 229.709 512.347 238.925 501.705C242.592 497.477 247.313 488.763 245.896 483.3L245.9 483.303Z" fill="#279649"/>
<path d="M243.971 480.318C238.125 483.427 232.259 486.57 226.563 489.902C221.121 493.084 215.421 496.523 210.175 499.967C209.805 500.209 209.409 499.986 209.734 500.659C218.246 497.062 226.713 493.284 234.892 489.079C238.575 487.186 242.025 484.816 245.905 483.308C245.884 483.227 245.867 483.138 245.838 483.058C245.355 481.584 244.955 481.357 243.975 480.318H243.971Z" fill="#036134"/>
<path d="M383.797 358.538C383.701 354.368 382.51 350.247 381.926 346.1C380.622 336.897 379.901 327.594 379.385 318.322C380.239 318.291 379.843 318.568 379.956 319.003C381.597 325.201 383.051 331.818 384.335 338.097C385.676 344.672 386.751 351.324 387.789 357.942C387.972 357.884 388.535 358.123 388.672 358.057C388.706 358.042 388.793 357.615 389.06 357.419C398.543 350.401 402.614 336.928 400.943 326.04C398.914 312.805 388.164 301.363 375.931 294.899C374.693 295.03 369.368 302.863 368.543 304.256C361.181 316.702 358.822 332.099 366.664 344.815C369.785 349.87 377.326 357.68 383.793 358.538H383.797Z" fill="#AADA38"/>
<path d="M387.793 357.945C386.751 351.324 385.68 344.672 384.339 338.101C383.055 331.826 381.601 325.205 379.96 319.007C379.843 318.568 380.243 318.295 379.389 318.326C379.905 327.598 380.626 336.897 381.93 346.103C382.518 350.247 383.709 354.367 383.801 358.542C383.897 358.553 383.997 358.573 384.097 358.58C385.88 358.719 386.284 358.438 387.797 357.949L387.793 357.945Z" fill="#6EBD2F"/>
<path d="M385.13 465.529C381.972 468.51 379.618 472.184 376.826 475.47C370.622 482.772 363.935 489.763 357.126 496.592C356.505 496.049 356.997 496.119 357.251 495.738C360.897 490.317 364.993 484.723 368.947 479.483C373.089 473.993 377.485 468.629 381.876 463.309C381.705 463.232 381.493 462.693 381.347 462.647C381.31 462.635 380.918 462.878 380.58 462.839C368.514 461.5 355.247 468.249 347.993 476.974C339.18 487.578 337.86 502.675 341.422 515.267C342.389 515.994 352.176 514.017 353.83 513.586C368.61 509.727 382.168 500.501 386.51 486.427C388.235 480.833 388.993 470.392 385.13 465.525V465.529Z" fill="#AADA38"/>
<path d="M381.876 463.313C377.484 468.634 373.093 473.998 368.947 479.488C364.993 484.728 360.893 490.322 357.251 495.743C356.993 496.124 356.501 496.054 357.126 496.597C363.934 489.768 370.622 482.777 376.826 475.475C379.618 472.185 381.972 468.515 385.13 465.533C385.072 465.46 385.018 465.383 384.955 465.314C383.814 464.041 383.314 463.971 381.876 463.317V463.313Z" fill="#6EBD2F"/>
<path d="M542.864 498.813C463.193 479.023 403.647 449.352 378.739 392.257C373.968 381.32 371.447 369.635 367.08 358.551C364.418 357.024 361.222 358.351 361.951 361.513L371.184 395.155L372.476 402.584C368.68 398.871 365.014 395.005 361.551 391.026C355.334 383.893 348.243 375.398 342.664 367.877C341.418 369.047 339.514 370.343 337.826 370.878C337.693 370.92 337.618 371.136 337.501 371.155C350.993 391.403 364.376 412.041 381.605 429.854L339.284 415.803C339.234 416.011 338.405 416.384 338.305 416.634C337.489 418.704 337.455 419.397 335.597 421.163C336.118 421.809 336.826 422.178 337.568 422.563C345.493 426.672 354.801 430.569 363.076 434.224C369.447 437.037 375.905 439.799 382.476 442.196C382.989 442.519 383.018 442.785 382.439 443.042C380.934 443.716 376.968 444.593 375.139 445.02C346.789 451.676 321.064 448.879 292.476 446.159L291.826 446.713C292.155 448.359 291.793 450.033 291.297 451.614C291.472 451.649 291.722 452.184 291.897 452.214C306.018 454.935 320.276 457.755 334.597 459.382C335.068 459.436 338.539 459.078 337.797 459.89L320.818 471.547C321.034 471.705 321.209 471.963 321.418 472.147C322.614 473.198 323.576 474.425 324.393 475.733C324.589 476.045 325.197 476.383 325.293 476.637C341.03 467.754 359.676 461.875 378.23 459.986C412.439 456.504 470.168 485.028 523.639 515.157C530.034 509.705 536.472 504.261 542.859 498.806L542.864 498.813Z" fill="#914F2B"/>
<path d="M291.893 452.224C291.718 452.19 291.468 451.655 291.293 451.624C289.31 451.243 284.826 451.651 282.368 451.44C270.997 450.466 259.676 449.185 248.355 447.812C247.03 447.215 231.951 445.515 232.035 444.749C232.097 444.18 233.272 444.118 233.785 444.064C237.189 443.718 242.889 444.518 246.614 444.591C261.693 444.884 276.76 445.576 291.822 446.723L292.472 446.169C290.226 444.018 288.993 441.183 286.989 438.87C278.56 429.129 264.214 421.615 250.835 420.118C230.701 417.872 209.564 427.932 196.23 441.513C206.097 456.51 226.301 469.741 245.322 471.942C260.218 473.666 277.189 467.144 287.426 457.122C288.964 455.618 289.855 453.429 291.885 452.224H291.893Z" fill="#AADA38"/>
<path d="M320.818 471.557C315.797 467.894 303.61 466.825 297.335 467.387C272.864 469.583 254.522 486.958 248.285 508.326C247.768 510.1 245.76 520.034 246.672 520.988C248.193 522.577 262.355 524.974 265.297 525.197C293.66 527.336 321.297 510.627 325.035 483.511C325.18 482.464 325.526 477.255 325.293 476.647C325.197 476.397 324.589 476.058 324.393 475.743C309.364 485.977 293.718 495.137 277.539 503.667L274.514 504.833C284.447 496.957 294.81 489.516 305.143 482.168L321.418 472.157C321.21 471.973 321.035 471.715 320.818 471.557Z" fill="#289649"/>
<path d="M335.268 421.445C329.976 417.602 323.709 414.974 317.988 411.68C305.28 404.367 292.993 396.341 280.947 388.127C281.713 387.188 281.684 387.873 282.338 388.162C291.618 392.275 301.251 396.984 310.288 401.554C319.755 406.34 329.068 411.488 338.305 416.64C338.405 416.39 339.234 416.016 339.284 415.809C339.297 415.755 338.847 415.262 338.855 414.793C339.072 398.076 326.113 381.013 310.955 372.495C292.534 362.146 268.105 362.758 248.476 369.652C247.468 371.091 252.205 384.16 253.163 386.353C261.726 405.944 278.697 423.011 301.968 426.689C311.222 428.151 328.088 427.512 335.276 421.449L335.268 421.445Z" fill="#279649"/>
<path d="M338.302 416.636C329.064 411.484 319.752 406.336 310.285 401.55C301.248 396.984 291.614 392.274 282.335 388.158C281.681 387.869 281.714 387.184 280.943 388.123C292.989 396.337 305.277 404.363 317.985 411.677C323.706 414.97 329.973 417.598 335.264 421.441C335.373 421.349 335.489 421.26 335.589 421.164C337.448 419.398 337.481 418.706 338.298 416.636H338.302Z" fill="#036134"/>
<path d="M291.821 446.723C276.759 445.576 261.692 444.884 246.613 444.591C242.888 444.518 237.188 443.718 233.784 444.064C233.267 444.118 232.092 444.179 232.034 444.749C231.95 445.514 247.029 447.215 248.354 447.811C259.675 449.185 270.992 450.466 282.367 451.439C284.825 451.651 289.309 451.243 291.292 451.624C291.788 450.047 292.15 448.373 291.821 446.723Z" fill="#6EBD2F"/>
<path d="M324.393 475.744C323.576 474.436 322.614 473.209 321.418 472.158L305.143 482.169C294.81 489.517 284.447 496.958 274.514 504.834L277.539 503.668C293.718 495.138 309.364 485.982 324.393 475.744Z" fill="#036134"/>
<path d="M282.829 316.045C282.942 313.591 283.792 303.876 284.662 302.176C285.512 300.521 291.287 302.187 293.133 301.402C306.621 303.695 319.95 307.631 330.754 315.664C347.783 328.322 353.192 352.576 345.183 371.124C345.087 371.001 344.417 371.047 344.321 370.924C334.454 358.258 324.233 345.743 313.354 333.712C312.429 333.208 307.95 327.73 307.421 328.026C306.837 328.349 307.746 329.28 307.95 329.592C312.55 336.513 316.996 343.892 321.867 350.667C327.587 358.624 334.337 365.995 339.783 374.105C339.721 374.225 339.733 374.379 339.675 374.506C318.992 375.39 297.008 364.072 288.675 346.312C286.262 341.168 285.267 335.717 284.017 330.28C283.846 329.538 282.696 318.919 282.829 316.053V316.045Z" fill="#AADA38"/>
<path d="M339.788 374.101C334.342 365.995 327.596 358.619 321.871 350.663C317 343.892 312.555 336.509 307.955 329.587C307.746 329.276 306.838 328.348 307.425 328.021C307.959 327.725 312.434 333.208 313.359 333.708C324.234 345.734 334.459 358.25 344.325 370.919C343.888 372.4 340.363 373.024 339.788 374.097V374.101Z" fill="#6EBD2F"/>
<path d="M411.613 415.717C411.8 419.203 411.646 434.404 421.584 446.615C431.521 458.827 410.459 439.317 410.459 439.317C405.784 434.004 407.059 420.134 407.338 415.613C407.613 411.093 411.613 415.713 411.613 415.713V415.717Z" fill="#914F2B"/>
<path d="M407.128 417.699C408.086 413.036 407.811 408.196 408.211 403.46C409.107 392.938 410.67 382.434 412.461 372.012C413.42 372.162 412.907 372.381 412.924 372.893C413.17 380.141 413.103 387.824 412.932 395.081C412.753 402.687 412.249 410.316 411.72 417.907C411.936 417.88 412.92 417.761 413.265 417.599C425.603 411.855 433.561 397.751 434.478 385.274C435.59 370.111 426.549 355.049 414.591 345.2C413.178 345.073 405.261 352.633 403.99 354.003C392.632 366.249 386.082 382.861 391.57 398.709C393.753 405.011 400.153 415.333 407.128 417.695V417.699Z" fill="#279649"/>
<path d="M411.719 417.907C412.248 410.316 412.752 402.683 412.931 395.08C413.102 387.82 413.169 380.141 412.923 372.893C412.906 372.381 413.419 372.162 412.46 372.012C410.673 382.434 409.106 392.941 408.21 403.46C407.806 408.196 408.081 413.04 407.127 417.699C407.231 417.733 407.339 417.776 407.444 417.807C409.394 418.345 409.914 418.126 411.719 417.907Z" fill="#036134"/>
</g>
</svg>
