<svg width="140" height="11" viewBox="0 0 140 11" fill="none" xmlns="http://www.w3.org/2000/svg">
<g opacity="0.57">
<path d="M0.598633 10.0108C1.03165 10.2317 1.7753 10.2526 2.4813 10.2901C1.94003 10.0776 1.36111 9.98585 0.598633 10.0108Z" fill="#43C554"/>
<path d="M2.49275 10.2939H2.50161C2.49276 10.2939 2.48392 10.2939 2.47949 10.2939C2.48392 10.2939 2.48833 10.2939 2.49275 10.2981V10.2939Z" fill="#43C554"/>
<path d="M139.464 0.255859C139.29 0.260026 139.088 0.264205 138.885 0.268372C139.078 0.276705 139.276 0.276693 139.464 0.255859Z" fill="#43C554"/>
<path d="M41.1207 10.8599L41.2243 10.497C42.828 10.4888 41.6928 10.9134 43.1749 10.8227C43.756 10.3074 45.6391 10.8722 46.1482 10.6001C46.1347 10.6413 46.8645 10.6578 46.8149 10.8186C47.0357 10.5383 47.5627 10.7527 48.0177 10.6826C48.1844 10.6043 47.8961 10.6001 47.77 10.5135L48.8196 10.4146C49.2296 10.5053 49.3287 10.6702 48.8872 10.699C51.6262 10.798 64.7852 11.0536 67.7359 10.9134C67.3575 10.7032 66.443 10.8475 66.1006 10.5135C66.88 10.328 67.2494 10.5795 67.5918 10.3816C67.8936 10.8763 69.3082 10.497 69.8983 11L70.1236 10.7197L70.511 10.8888C73.9438 10.596 71.2949 10.7444 74.3357 10.8104C76.0972 10.765 76.9351 10.3775 77.9127 10.5218C77.7685 10.5218 77.3766 10.3487 77.8361 10.2745C77.9127 10.5218 79.0524 10.0971 79.2731 10.3445C79.7191 10.3115 81.1652 10.3445 80.6787 10.0064C80.9264 10.1754 82.2149 10.2414 81.4491 10.3857C81.886 10.3939 82.305 10.4435 82.6203 10.3693L82.0617 10.2745C83.5349 10.225 84.3367 10.4846 85.2917 10.1795L84.7467 10.0477C85.6251 10.0271 86.3639 9.99818 86.7063 10.3321L85.8053 10.4352C87.2649 10.427 88.1434 10.4022 89.3597 10.2249L88.9273 10.2167C90.477 9.88272 98.5814 9.60236 100.005 9.18594L99.3473 8.93037L100.573 8.71184C100.428 8.71184 99.9825 9.54873 99.8608 9.46628C102.492 9.44154 116.173 9.23131 118.601 9.40447C119.584 9.54465 118.777 9.81268 118.768 9.85391C119.962 9.75496 119.282 9.58175 120.295 9.60236C120.57 9.64772 120.237 9.80442 120.084 9.84153C120.53 9.81267 120.94 9.89919 120.976 9.77962C120.421 9.6848 120.656 9.36732 120.421 9.15705L121.728 9.18182L121.669 9.38384C121.962 9.38796 122.408 8.83133 123.688 8.93853C125.85 9.02511 128.197 8.95095 130.373 8.9963C130.341 9.11587 129.882 9.19004 129.427 9.26013C129.72 9.26425 130.161 9.23545 130.431 9.32203C129.904 9.10764 131.341 9.1777 130.932 9.087C132.522 8.59224 134.585 9.04167 135.991 8.70359C136.112 8.25831 138.995 1.072 138.995 0.544257C139.432 0.552503 139.865 0.560709 140 0.606061C139.887 0.482373 139.031 0.424644 138.572 0.494734L138.495 0.779294C137.446 0.878245 138.248 0.610209 137.225 0.630823C137.171 0.399938 138.112 0.350467 138.941 0.325729C138.194 0.300991 137.45 0.131906 137.144 0.383406C136.441 0.288578 137.22 0.0989508 136.378 0C135.774 0.0700901 134.986 0.296909 134.292 0.160851L134.306 0.119582C132.625 -0.119549 131.733 0.474171 130.193 0.239163L130.359 0.160851C129.814 0.028917 128.747 0.206212 127.765 0.0660316C128.044 0.111384 128.287 0.280361 127.697 0.309221C126.571 0.164918 125.8 0.309249 124.976 0.131963L124.188 0.358745C120.264 0.317515 104.767 0.651494 100.825 0.688601L100.978 0.651458C94.9729 0.771024 82.6429 0.758667 76.4395 1.07613C75.48 0.853495 74.1555 0.907069 73.1554 0.845225C73.714 0.93593 73.5203 1.09676 73.0878 1.08851C70.038 1.06378 72.8806 1.24101 69.7947 1.33996C66.2403 1.55023 52.6398 1.32347 49.4863 1.13381C47.7925 1.46365 45.6751 1.21625 44.0173 1.42652L44.184 1.34821C42.4 1.4719 32.3089 1.1751 30.2367 1.29466L30.516 1.33996C28.7095 1.54611 28.9573 1.18745 27.5292 1.07613C27.7184 1.44308 26.1687 1.65746 25.5786 1.6822L25.6011 1.59976C24.7091 1.6616 22.6954 1.98311 21.2222 2.03671L21.2808 1.83469C20.0555 2.05321 17.7489 1.96255 16.866 1.98729C14.8522 1.90483 11.7393 1.55432 9.04535 1.82644L7.30193 1.25339L7.04515 1.31107C7.04515 1.31107 4.24757 8.26244 7.80649 9.74258L7.74792 9.9446L8.45069 9.91984C9.29312 10.0188 9.68505 9.78375 9.62648 9.98577L8.4687 9.96111C9.31564 10.0188 8.7255 10.126 8.40115 10.2414C8.75704 10.2621 9.09941 10.2827 9.38322 10.3445C9.54991 10.2662 9.26159 10.262 9.12644 10.2167C9.58144 10.1466 10.2167 9.95697 10.7753 10.0477C11.6447 10.0642 10.8293 10.3733 11.8429 10.3939C17.1903 10.5465 22.371 10.7774 27.777 10.7279C27.8986 10.8104 27.7544 10.8104 27.5968 10.8475C29.2231 10.7609 30.6737 10.7897 32.1558 10.699C32.5657 10.7897 32.6784 10.9135 32.8 10.996C32.5567 10.8269 40.9855 10.8063 41.1207 10.8516V10.8599Z" fill="#43C554"/>
</g>
</svg>
