<svg width="226" height="59" viewBox="0 0 226 59" fill="none" xmlns="http://www.w3.org/2000/svg">
<path d="M196.147 0.136719H29.9846C13.9661 0.136719 0.980469 13.1224 0.980469 29.1409C0.980469 45.1595 13.9661 58.1451 29.9846 58.1451H196.147C212.166 58.1451 225.151 45.1595 225.151 29.1409C225.151 13.1224 212.166 0.136719 196.147 0.136719Z" fill="#A0D92A"/>
<path d="M52.631 25.6734C49.8726 25.6734 47.8477 23.611 47.8477 20.2235C47.8477 16.836 49.8726 14.7734 52.631 14.7734C55.3893 14.7734 57.4101 16.8318 57.4101 20.2235C57.4101 23.6151 55.3768 25.6734 52.631 25.6734ZM52.631 16.2318C50.8018 16.2318 49.4393 17.636 49.4393 20.2235C49.4393 22.811 50.8018 24.2151 52.631 24.2151C54.4601 24.2151 55.8227 22.811 55.8227 20.2235C55.8227 17.636 54.456 16.2318 52.631 16.2318Z" fill="#005339"/>
<path d="M59.2676 17.5662H60.7634V18.8287H60.8467C61.1384 17.9745 61.9343 17.4453 62.8676 17.4453C63.0634 17.4453 63.3717 17.462 63.5259 17.4828V18.9662C63.4009 18.9287 63.0384 18.8746 62.7175 18.8746C61.6175 18.8746 60.8176 19.6245 60.8176 20.6661V25.5287H59.2676V17.5703V17.5662Z" fill="#005339"/>
<path d="M73.2933 19.7607C73.11 19.2273 72.6683 18.694 71.7017 18.694C70.8225 18.694 70.1559 19.1273 70.1642 19.7398C70.16 20.2773 70.5392 20.5732 71.4142 20.7815L72.6767 21.0731C74.1392 21.4106 74.8517 22.1065 74.8517 23.2274C74.8517 24.669 73.5183 25.6898 71.5975 25.6898C69.81 25.6898 68.6392 24.8982 68.3809 23.4857L69.8767 23.2565C70.0642 24.0398 70.66 24.4398 71.585 24.4398C72.6017 24.4398 73.26 23.9566 73.26 23.3399C73.26 22.8441 72.9017 22.5023 72.135 22.3315L70.7892 22.0357C69.2975 21.7023 68.6142 20.9523 68.6142 19.8231C68.6142 18.4148 69.8892 17.4648 71.685 17.4648C73.4808 17.4648 74.3725 18.2731 74.6975 19.5106L73.2933 19.7607Z" fill="#005339"/>
<path d="M78.0988 25.5266H76.5488V14.9141H78.078V18.8641H78.178C78.553 18.0057 79.2988 17.464 80.5363 17.464C82.1738 17.464 83.2613 18.4807 83.2613 20.464V25.5266H81.7113V20.6515C81.7113 19.4848 81.0738 18.8057 80.0072 18.8057C78.9405 18.8057 78.0988 19.5307 78.0988 20.8015V25.5266Z" fill="#005339"/>
<path d="M84.9553 23.2779C84.9553 21.4695 86.5012 21.0737 88.0053 20.8987C89.4345 20.732 90.0178 20.7445 90.0178 20.1779V20.1403C90.0178 19.2403 89.5053 18.7154 88.5053 18.7154C87.5053 18.7154 86.8845 19.2612 86.6553 19.8237L85.197 19.4904C85.7137 18.0404 87.0428 17.457 88.4803 17.457C89.7428 17.457 91.5678 17.9195 91.5678 20.2362V25.5196H90.0553V24.432H89.9928C89.697 25.0279 88.9553 25.6945 87.6387 25.6945C86.1262 25.6945 84.9512 24.8362 84.9512 23.2695L84.9553 23.2779ZM90.022 22.657V21.632C89.797 21.8529 88.6053 21.9904 88.1053 22.057C87.2095 22.1779 86.472 22.4737 86.472 23.2987C86.472 24.0654 87.1053 24.4612 87.9803 24.4612C89.272 24.4612 90.022 23.6029 90.022 22.657Z" fill="#005339"/>
<path d="M93.627 17.5662H95.1228V18.8287H95.2061C95.4978 17.9745 96.2936 17.4453 97.227 17.4453C97.4228 17.4453 97.7311 17.462 97.8853 17.4828V18.9662C97.7603 18.9287 97.3978 18.8746 97.077 18.8746C95.977 18.8746 95.1769 19.6245 95.1769 20.6661V25.5287H93.627V17.5703V17.5662Z" fill="#005339"/>
<path d="M98.584 21.5981C98.584 19.1523 100.046 17.4648 102.263 17.4648C104.067 17.4648 105.788 18.5899 105.788 21.4649V22.0148H100.13C100.171 23.5481 101.063 24.4106 102.388 24.4106C103.267 24.4106 103.942 24.0273 104.221 23.2773L105.688 23.5399C105.334 24.8357 104.109 25.6898 102.371 25.6898C100.026 25.6898 98.584 24.0731 98.584 21.6023V21.5981ZM104.267 20.8524C104.263 19.6357 103.476 18.744 102.271 18.744C101.067 18.744 100.192 19.7232 100.13 20.8524H104.263H104.267Z" fill="#005339"/>
<path d="M111.174 15.4174C111.174 14.9091 111.615 14.4883 112.153 14.4883C112.69 14.4883 113.132 14.9091 113.132 15.4174C113.132 15.9258 112.686 16.3383 112.153 16.3383C111.62 16.3383 111.174 15.9216 111.174 15.4174ZM111.37 17.5674H112.92V25.5258H111.37V17.5674Z" fill="#005339"/>
<path d="M118.715 18.8102H117.082V23.1894C117.082 24.0852 117.532 24.2519 118.036 24.2519C118.286 24.2519 118.477 24.2061 118.582 24.1852L118.861 25.4643C118.677 25.531 118.348 25.6269 117.857 25.6311C116.636 25.6561 115.532 24.956 115.536 23.5102V18.8102H114.369V17.5685H115.536V15.6602H117.086V17.5685H118.719V18.8102H118.715Z" fill="#005339"/>
<path d="M128.072 18.8097H126.356V25.5264H124.801V18.8097H123.572V17.568H124.801V16.6472C124.801 15.1555 125.906 14.418 127.164 14.418C127.789 14.418 128.243 14.5471 128.46 14.6305L128.097 15.8846C127.951 15.8388 127.722 15.7638 127.401 15.7638C126.643 15.7638 126.356 16.1472 126.356 16.8513V17.568H128.072V18.8097Z" fill="#005339"/>
<path d="M128.994 21.5857C128.994 19.1107 130.461 17.4648 132.702 17.4648C134.944 17.4648 136.411 19.1066 136.411 21.5857C136.411 24.0649 134.944 25.6898 132.702 25.6898C130.461 25.6898 128.994 24.0482 128.994 21.5857ZM134.848 21.5816C134.848 20.0566 134.165 18.7649 132.707 18.7649C131.248 18.7649 130.557 20.0607 130.557 21.5816C130.557 23.1024 131.24 24.3899 132.707 24.3899C134.173 24.3899 134.848 23.1107 134.848 21.5816Z" fill="#005339"/>
<path d="M138.131 17.5662H139.627V18.8287H139.71C140.002 17.9745 140.797 17.4453 141.731 17.4453C141.927 17.4453 142.235 17.462 142.389 17.4828V18.9662C142.264 18.9287 141.902 18.8746 141.581 18.8746C140.481 18.8746 139.681 19.6245 139.681 20.6661V25.5287H138.131V17.5703V17.5662Z" fill="#005339"/>
<path d="M143.244 17.5664H144.844L146.403 23.4123H146.482L148.048 17.5664H149.648L151.203 23.3872H151.282L152.832 17.5664H154.432L152.094 25.5248H150.515L148.898 19.7789H148.777L147.161 25.5248H145.586L143.244 17.5664Z" fill="#005339"/>
<path d="M155.514 23.2779C155.514 21.4695 157.06 21.0737 158.564 20.8987C159.993 20.732 160.576 20.7445 160.576 20.1779V20.1403C160.576 19.2403 160.064 18.7154 159.064 18.7154C158.064 18.7154 157.443 19.2612 157.214 19.8237L155.756 19.4904C156.272 18.0404 157.601 17.457 159.039 17.457C160.301 17.457 162.126 17.9195 162.126 20.2362V25.5196H160.614V24.432H160.551C160.256 25.0279 159.514 25.6945 158.197 25.6945C156.685 25.6945 155.51 24.8362 155.51 23.2695L155.514 23.2779ZM160.581 22.657V21.632C160.356 21.8529 159.164 21.9904 158.664 22.057C157.768 22.1779 157.031 22.4737 157.031 23.2987C157.031 24.0654 157.664 24.4612 158.539 24.4612C159.831 24.4612 160.581 23.6029 160.581 22.657Z" fill="#005339"/>
<path d="M164.189 17.5662H165.685V18.8287H165.769C166.06 17.9745 166.856 17.4453 167.789 17.4453C167.985 17.4453 168.294 17.462 168.448 17.4828V18.9662C168.323 18.9287 167.96 18.8746 167.639 18.8746C166.539 18.8746 165.739 19.6245 165.739 20.6661V25.5287H164.189V17.5703V17.5662Z" fill="#005339"/>
<path d="M169.156 21.5638C169.156 18.9846 170.573 17.4637 172.494 17.4637C173.977 17.4637 174.506 18.3638 174.785 18.8596H174.877V14.918H176.427V25.5305H174.915V24.293H174.785C174.506 24.8013 173.935 25.6887 172.485 25.6887C170.552 25.6887 169.16 24.143 169.16 21.568L169.156 21.5638ZM174.902 21.5471C174.902 19.8846 174.177 18.7804 172.823 18.7804C171.469 18.7804 170.719 19.9679 170.719 21.5471C170.719 23.1263 171.44 24.3596 172.823 24.3596C174.206 24.3596 174.902 23.2179 174.902 21.5471Z" fill="#005339"/>
<path d="M57.7469 32.5273H59.1677C58.1469 33.894 57.3427 36.6732 57.3427 39.1357C57.3427 41.5982 58.1469 44.3774 59.1677 45.7483H57.7469C56.4302 43.9024 55.7344 41.7357 55.7344 39.1357C55.7344 36.5357 56.4302 34.3732 57.7469 32.5273Z" fill="#005339"/>
<path d="M64.5099 36.8219H62.8765V41.2011C62.8765 42.0969 63.3265 42.2636 63.8307 42.2636C64.0807 42.2636 64.2724 42.2178 64.3766 42.197L64.6557 43.4761C64.4724 43.5427 64.1432 43.6386 63.6516 43.6428C62.4307 43.6678 61.3265 42.9677 61.3307 41.5219V36.8219H60.1641V35.5802H61.3307V33.6719H62.8807V35.5802H64.514V36.8219H64.5099Z" fill="#005339"/>
<path d="M67.9348 43.5383H66.3848V32.9258H67.914V36.8758H68.0139C68.3889 36.0174 69.1348 35.4757 70.3723 35.4757C72.0098 35.4757 73.0973 36.4924 73.0973 38.4757V43.5383H71.5473V38.6633C71.5473 37.4966 70.9098 36.8174 69.8431 36.8174C68.7765 36.8174 67.9348 37.5424 67.9348 38.8132V43.5383Z" fill="#005339"/>
<path d="M74.7893 41.2896C74.7893 39.4812 76.3351 39.0854 77.8393 38.9104C79.2685 38.7438 79.8518 38.7563 79.8518 38.1896V38.1521C79.8518 37.2521 79.3393 36.7271 78.3393 36.7271C77.3393 36.7271 76.7185 37.273 76.4893 37.8355L75.031 37.5021C75.5476 36.0521 76.8768 35.4688 78.3143 35.4688C79.5768 35.4688 81.4018 35.9313 81.4018 38.248V43.5313H79.8893V42.4437H79.8268C79.531 43.0396 78.7893 43.7063 77.4726 43.7063C75.9601 43.7063 74.7852 42.8479 74.7852 41.2812L74.7893 41.2896ZM79.856 40.6687V39.6438C79.631 39.8646 78.4393 40.0021 77.9393 40.0688C77.0435 40.1896 76.306 40.4854 76.306 41.3104C76.306 42.0771 76.9393 42.4729 77.8143 42.4729C79.106 42.4729 79.856 41.6146 79.856 40.6687Z" fill="#005339"/>
<path d="M87.1779 36.8219H85.5445V41.2011C85.5445 42.0969 85.9946 42.2636 86.4987 42.2636C86.7487 42.2636 86.9404 42.2178 87.0445 42.197L87.3237 43.4761C87.1404 43.5427 86.8112 43.6386 86.3195 43.6428C85.0987 43.6678 83.9946 42.9677 83.9987 41.5219V36.8219H82.832V35.5802H83.9987V33.6719H85.5487V35.5802H87.1821V36.8219H87.1779Z" fill="#005339"/>
<path d="M92.1309 35.582H93.7308L95.2892 41.4279H95.3684L96.935 35.582H98.535L100.089 41.4029H100.168L101.718 35.582H103.318L100.981 43.5404H99.4017L97.785 37.7946H97.6642L96.0475 43.5404H94.4725L92.1309 35.582Z" fill="#005339"/>
<path d="M104.176 39.5975C104.176 37.1225 105.642 35.4766 107.884 35.4766C110.126 35.4766 111.592 37.1183 111.592 39.5975C111.592 42.0766 110.126 43.7016 107.884 43.7016C105.642 43.7016 104.176 42.06 104.176 39.5975ZM110.03 39.5933C110.03 38.0683 109.347 36.7766 107.888 36.7766C106.43 36.7766 105.738 38.0724 105.738 39.5933C105.738 41.1141 106.422 42.4016 107.888 42.4016C109.355 42.4016 110.03 41.1224 110.03 39.5933Z" fill="#005339"/>
<path d="M113.318 35.5818H114.814V36.8443H114.898C115.189 35.9901 115.985 35.4609 116.918 35.4609C117.114 35.4609 117.423 35.4776 117.577 35.4985V36.9818C117.452 36.9443 117.089 36.8902 116.768 36.8902C115.668 36.8902 114.868 37.6401 114.868 38.6818V43.5443H113.318V35.586V35.5818Z" fill="#005339"/>
<path d="M118.918 32.9258H120.468V38.9466H120.601L123.772 35.5799H125.626L122.401 38.9965L125.843 43.5424H123.943L121.239 39.9466L120.468 40.7174V43.5424H118.918V32.93V32.9258Z" fill="#005339"/>
<path d="M131.594 37.7724C131.411 37.2391 130.969 36.7057 130.003 36.7057C129.123 36.7057 128.457 37.139 128.465 37.7515C128.461 38.289 128.84 38.5849 129.715 38.7932L130.977 39.085C132.44 39.4225 133.152 40.1183 133.152 41.2391C133.152 42.6808 131.819 43.7016 129.898 43.7016C128.111 43.7016 126.94 42.9099 126.682 41.4974L128.178 41.2683C128.365 42.0516 128.961 42.4516 129.886 42.4516C130.903 42.4516 131.561 41.9683 131.561 41.3516C131.561 40.8558 131.202 40.514 130.436 40.3432L129.09 40.0474C127.598 39.7141 126.915 38.9641 126.915 37.835C126.915 36.4266 128.19 35.4766 129.986 35.4766C131.782 35.4766 132.673 36.285 132.998 37.5225L131.594 37.7724Z" fill="#005339"/>
<path d="M142.428 36.8219H140.794V41.2011C140.794 42.0969 141.245 42.2636 141.749 42.2636C141.999 42.2636 142.19 42.2178 142.295 42.197L142.574 43.4761C142.39 43.5427 142.061 43.6386 141.57 43.6428C140.349 43.6678 139.245 42.9677 139.249 41.5219V36.8219H138.082V35.5802H139.249V33.6719H140.799V35.5802H142.432V36.8219H142.428Z" fill="#005339"/>
<path d="M143.693 39.5975C143.693 37.1225 145.16 35.4766 147.402 35.4766C149.643 35.4766 151.11 37.1183 151.11 39.5975C151.11 42.0766 149.643 43.7016 147.402 43.7016C145.16 43.7016 143.693 42.06 143.693 39.5975ZM149.547 39.5933C149.547 38.0683 148.864 36.7766 147.406 36.7766C145.947 36.7766 145.256 38.0724 145.256 39.5933C145.256 41.1141 145.939 42.4016 147.406 42.4016C148.872 42.4016 149.547 41.1224 149.547 39.5933Z" fill="#005339"/>
<path d="M152.477 39.5975C152.477 37.1225 153.943 35.4766 156.185 35.4766C158.427 35.4766 159.893 37.1183 159.893 39.5975C159.893 42.0766 158.427 43.7016 156.185 43.7016C153.943 43.7016 152.477 42.06 152.477 39.5975ZM158.331 39.5933C158.331 38.0683 157.647 36.7766 156.189 36.7766C154.731 36.7766 154.039 38.0724 154.039 39.5933C154.039 41.1141 154.722 42.4016 156.189 42.4016C157.656 42.4016 158.331 41.1224 158.331 39.5933Z" fill="#005339"/>
<path d="M161.682 42.6005C161.682 42.0338 162.148 41.5713 162.719 41.5713C163.29 41.5713 163.757 42.038 163.757 42.6005C163.757 43.163 163.286 43.638 162.719 43.638C162.152 43.638 161.682 43.1755 161.682 42.6005ZM163.44 40.488H162.007L161.873 32.9297H163.577L163.444 40.488H163.44Z" fill="#005339"/>
<path d="M166.868 45.7483H165.447C166.468 44.3816 167.272 41.6024 167.272 39.1399C167.272 36.6774 166.468 33.894 165.447 32.5273H166.868C168.185 34.3732 168.881 36.5399 168.881 39.1399C168.881 41.7399 168.185 43.9024 166.868 45.7483Z" fill="#005339"/>
</svg>
