<svg width="189" height="43" viewBox="0 0 189 43" fill="none" xmlns="http://www.w3.org/2000/svg">
<path d="M167.503 0.917969H21.6693C10.1633 0.917969 0.835938 10.2454 0.835938 21.7513C0.835938 33.2572 10.1633 42.5846 21.6693 42.5846H167.503C179.009 42.5846 188.336 33.2572 188.336 21.7513C188.336 10.2454 179.009 0.917969 167.503 0.917969Z" fill="#02B14F"/>
<path d="M41.4888 18.606C40.1846 18.606 39.3596 19.2726 39.3596 20.1768C39.3555 21.1934 40.4596 21.581 41.2888 21.7935L42.3263 22.0643C43.6721 22.3976 45.3805 23.1352 45.3805 25.0477C45.3805 26.8477 43.9471 28.156 41.4513 28.156C38.9555 28.156 37.5846 26.9685 37.4805 25.0477H39.0847C39.1763 26.2018 40.2055 26.7518 41.4388 26.7518C42.8013 26.7518 43.793 26.0685 43.793 25.031C43.793 24.0893 42.918 23.7143 41.7805 23.4143L40.5263 23.0727C38.8222 22.6102 37.7638 21.7477 37.7638 20.2685C37.7638 18.4393 39.3972 17.2227 41.5263 17.2227C43.6555 17.2227 45.1847 18.456 45.2305 20.156H43.6846C43.5721 19.1768 42.7055 18.606 41.4888 18.606Z" fill="white"/>
<path d="M48.7062 27.9759H47.1562V17.3633H48.6854V21.3134H48.7854C49.1604 20.455 49.9062 19.9133 51.1437 19.9133C52.7812 19.9133 53.8687 20.93 53.8687 22.9133V27.9759H52.3188V23.1008C52.3188 21.9341 51.6812 21.255 50.6146 21.255C49.5479 21.255 48.7062 21.98 48.7062 23.2508V27.9759Z" fill="white"/>
<path d="M55.5647 25.731C55.5647 23.9226 57.1106 23.5268 58.6147 23.3518C60.0439 23.1852 60.6272 23.1977 60.6272 22.631V22.5935C60.6272 21.6935 60.1147 21.1685 59.1147 21.1685C58.1147 21.1685 57.4939 21.7143 57.2648 22.2768L55.8064 21.9435C56.3231 20.4935 57.6523 19.9102 59.0898 19.9102C60.3523 19.9102 62.1772 20.3726 62.1772 22.6893V27.9727H60.6647V26.8852H60.6022C60.3064 27.481 59.5647 28.1477 58.2481 28.1477C56.7356 28.1477 55.5605 27.2893 55.5605 25.7226L55.5647 25.731ZM60.6314 25.1101V24.0852C60.4064 24.306 59.2147 24.4435 58.7147 24.5102C57.8189 24.631 57.0814 24.9268 57.0814 25.7518C57.0814 26.5185 57.7147 26.9143 58.5897 26.9143C59.8814 26.9143 60.6314 26.056 60.6314 25.1101Z" fill="white"/>
<path d="M64.2383 20.0193H65.7341V21.2818H65.8174C66.1091 20.4276 66.905 19.8984 67.8383 19.8984C68.0341 19.8984 68.3424 19.9151 68.4966 19.936V21.4193C68.3716 21.3818 68.0091 21.3276 67.6882 21.3276C66.5882 21.3276 65.7883 22.0776 65.7883 23.1193V27.9818H64.2383V20.0235V20.0193Z" fill="white"/>
<path d="M69.1934 24.0513C69.1934 21.6054 70.6558 19.918 72.8725 19.918C74.6767 19.918 76.3975 21.043 76.3975 23.918V24.4679H70.7392C70.7808 26.0013 71.6725 26.8638 72.9975 26.8638C73.8766 26.8638 74.5517 26.4804 74.8308 25.7304L76.2975 25.993C75.9433 27.2888 74.7183 28.143 72.9808 28.143C70.635 28.143 69.1934 26.5263 69.1934 24.0554V24.0513ZM74.8766 23.3054C74.8725 22.0888 74.085 21.1972 72.8808 21.1972C71.6767 21.1972 70.8017 22.1763 70.7392 23.3054H74.8725H74.8766Z" fill="white"/>
<path d="M85.6935 21.2633H84.0602V25.6425C84.0602 26.5383 84.5102 26.705 85.0143 26.705C85.2643 26.705 85.456 26.6591 85.5602 26.6383L85.8393 27.9175C85.656 27.9841 85.3268 28.08 84.8352 28.0842C83.6143 28.1092 82.5102 27.4092 82.5143 25.9633V21.2633H81.3477V20.0216H82.5143V18.1133H84.0643V20.0216H85.6977V21.2633H85.6935Z" fill="white"/>
<path d="M89.1125 27.9759H87.5625V17.3633H89.0916V21.3134H89.1917C89.5667 20.455 90.3125 19.9133 91.55 19.9133C93.1875 19.9133 94.275 20.93 94.275 22.9133V27.9759H92.725V23.1008C92.725 21.9341 92.0875 21.255 91.0208 21.255C89.9541 21.255 89.1125 21.98 89.1125 23.2508V27.9759Z" fill="white"/>
<path d="M96.1484 17.8667C96.1484 17.3583 96.5901 16.9375 97.1276 16.9375C97.6651 16.9375 98.1068 17.3583 98.1068 17.8667C98.1068 18.375 97.6609 18.7875 97.1276 18.7875C96.5943 18.7875 96.1484 18.3708 96.1484 17.8667ZM96.3443 20.0166H97.8942V27.975H96.3443V20.0166Z" fill="white"/>
<path d="M104.536 22.2099C104.352 21.6766 103.911 21.1432 102.944 21.1432C102.065 21.1432 101.398 21.5765 101.406 22.189C101.402 22.7265 101.781 23.0224 102.656 23.2307L103.919 23.5224C105.381 23.8599 106.094 24.5558 106.094 25.6766C106.094 27.1183 104.761 28.1391 102.84 28.1391C101.052 28.1391 99.8814 27.3474 99.623 25.9349L101.119 25.7057C101.306 26.489 101.902 26.8891 102.827 26.8891C103.844 26.8891 104.502 26.4058 104.502 25.7891C104.502 25.2933 104.144 24.9515 103.377 24.7807L102.031 24.4849C100.54 24.1516 99.8564 23.4015 99.8564 22.2724C99.8564 20.864 101.131 19.9141 102.927 19.9141C104.723 19.9141 105.615 20.7224 105.94 21.9599L104.536 22.2099Z" fill="white"/>
<path d="M111.293 24.0513C111.293 21.6054 112.756 19.918 114.972 19.918C116.776 19.918 118.497 21.043 118.497 23.918V24.4679H112.839C112.881 26.0013 113.772 26.8638 115.097 26.8638C115.976 26.8638 116.651 26.4804 116.93 25.7304L118.397 25.993C118.043 27.2888 116.818 28.143 115.08 28.143C112.735 28.143 111.293 26.5263 111.293 24.0554V24.0513ZM116.976 23.3054C116.972 22.0888 116.185 21.1972 114.98 21.1972C113.776 21.1972 112.901 22.1763 112.839 23.3054H116.972H116.976Z" fill="white"/>
<path d="M124.006 21.2628H122.289V27.9795H120.735V21.2628H119.506V20.0211H120.735V19.1003C120.735 17.6086 121.839 16.8711 123.098 16.8711C123.723 16.8711 124.177 17.0003 124.393 17.0836L124.031 18.3378C123.885 18.2919 123.656 18.2169 123.335 18.2169C122.577 18.2169 122.289 18.6003 122.289 19.3045V20.0211H124.006V21.2628Z" fill="white"/>
<path d="M129.385 21.2628H127.668V27.9795H126.114V21.2628H124.885V20.0211H126.114V19.1003C126.114 17.6086 127.218 16.8711 128.476 16.8711C129.101 16.8711 129.556 17.0003 129.772 17.0836L129.41 18.3378C129.264 18.2919 129.035 18.2169 128.714 18.2169C127.956 18.2169 127.668 18.6003 127.668 19.3045V20.0211H129.385V21.2628Z" fill="white"/>
<path d="M130.305 24.0349C130.305 21.5599 131.771 19.9141 134.013 19.9141C136.255 19.9141 137.721 21.5557 137.721 24.0349C137.721 26.514 136.255 28.1391 134.013 28.1391C131.771 28.1391 130.305 26.4974 130.305 24.0349ZM136.159 24.0307C136.159 22.5057 135.476 21.2141 134.017 21.2141C132.559 21.2141 131.867 22.5098 131.867 24.0307C131.867 25.5515 132.551 26.8391 134.017 26.8391C135.484 26.8391 136.159 25.5598 136.159 24.0307Z" fill="white"/>
<path d="M139.443 20.0193H140.939V21.2818H141.022C141.314 20.4276 142.11 19.8984 143.043 19.8984C143.239 19.8984 143.548 19.9151 143.702 19.936V21.4193C143.577 21.3818 143.214 21.3276 142.893 21.3276C141.793 21.3276 140.993 22.0776 140.993 23.1193V27.9818H139.443V20.0235V20.0193Z" fill="white"/>
<path d="M149.227 21.2633H147.593V25.6425C147.593 26.5383 148.043 26.705 148.548 26.705C148.798 26.705 148.989 26.6591 149.093 26.6383L149.373 27.9175C149.189 27.9841 148.86 28.08 148.368 28.0842C147.148 28.1092 146.043 27.4092 146.048 25.9633V21.2633H144.881V20.0216H146.048V18.1133H147.598V20.0216H149.231V21.2633H149.227Z" fill="white"/>
</svg>
