<svg width="188" height="43" viewBox="0 0 188 43" fill="none" xmlns="http://www.w3.org/2000/svg">
<path d="M166.882 0.578125H21.0482C9.54224 0.578125 0.214844 9.90553 0.214844 21.4115C0.214844 32.9174 9.54224 42.2448 21.0482 42.2448H166.882C178.387 42.2448 187.715 32.9174 187.715 21.4115C187.715 9.90553 178.387 0.578125 166.882 0.578125Z" fill="#02B14F"/>
<path d="M40.8736 18.2662C39.5694 18.2662 38.7444 18.9328 38.7444 19.837C38.7402 20.8537 39.8444 21.2411 40.6735 21.4536L41.7111 21.7245C43.0569 22.0579 44.7652 22.7953 44.7652 24.7078C44.7652 26.5078 43.3319 27.8161 40.836 27.8161C38.3402 27.8161 36.9694 26.6287 36.8652 24.7078H38.4694C38.5611 25.862 39.5902 26.412 40.8236 26.412C42.1861 26.412 43.1777 25.7286 43.1777 24.6911C43.1777 23.7495 42.3027 23.3745 41.1652 23.0745L39.911 22.7328C38.2069 22.2703 37.1485 21.4078 37.1485 19.9287C37.1485 18.0995 38.7819 16.8828 40.9111 16.8828C43.0402 16.8828 44.5694 18.1162 44.6152 19.8162H43.0694C42.9569 18.837 42.0902 18.2662 40.8736 18.2662Z" fill="white"/>
<path d="M48.091 27.6398H46.541V17.0273H48.0701V20.9773H48.1702C48.5452 20.119 49.291 19.5773 50.5285 19.5773C52.166 19.5773 53.2535 20.5939 53.2535 22.5773V27.6398H51.7035V22.7649C51.7035 21.5982 51.066 20.9189 49.9993 20.9189C48.9327 20.9189 48.091 21.644 48.091 22.9148V27.6398Z" fill="white"/>
<path d="M54.9455 25.3911C54.9455 23.5828 56.4914 23.187 57.9956 23.012C59.4247 22.8453 60.008 22.8578 60.008 22.2912V22.2537C60.008 21.3537 59.4955 20.8287 58.4955 20.8287C57.4955 20.8287 56.8747 21.3746 56.6456 21.9371L55.1872 21.6037C55.7039 20.1537 57.0331 19.5703 58.4706 19.5703C59.7331 19.5703 61.558 20.0329 61.558 22.3495V27.6329H60.0456V26.5453H59.9831C59.6872 27.1411 58.9456 27.8078 57.6289 27.8078C56.1164 27.8078 54.9414 26.9495 54.9414 25.3828L54.9455 25.3911ZM60.0122 24.7703V23.7453C59.7872 23.9662 58.5956 24.1037 58.0956 24.1703C57.1997 24.2912 56.4622 24.587 56.4622 25.412C56.4622 26.1787 57.0955 26.5745 57.9705 26.5745C59.2622 26.5745 60.0122 25.7161 60.0122 24.7703Z" fill="white"/>
<path d="M63.6191 19.6794H65.115V20.942H65.1983C65.49 20.0878 66.2858 19.5586 67.2191 19.5586C67.415 19.5586 67.7233 19.5753 67.8775 19.5961V21.0795C67.7525 21.042 67.39 20.9878 67.0692 20.9878C65.9692 20.9878 65.1691 21.7378 65.1691 22.7794V27.642H63.6191V19.6836V19.6794Z" fill="white"/>
<path d="M68.5742 23.7115C68.5742 21.2657 70.0367 19.5781 72.2534 19.5781C74.0575 19.5781 75.7784 20.7032 75.7784 23.5782V24.1282H70.12C70.1617 25.6615 71.0534 26.524 72.3784 26.524C73.2576 26.524 73.9326 26.1406 74.2117 25.3906L75.6784 25.6532C75.3242 26.949 74.0992 27.8031 72.3617 27.8031C70.0159 27.8031 68.5742 26.1864 68.5742 23.7156V23.7115ZM74.2576 22.9657C74.2534 21.749 73.4659 20.8573 72.2617 20.8573C71.0575 20.8573 70.1825 21.8365 70.12 22.9657H74.2534H74.2576Z" fill="white"/>
<path d="M85.0783 20.9234H83.4449V25.3025C83.4449 26.1984 83.8949 26.3651 84.3991 26.3651C84.6491 26.3651 84.8407 26.3193 84.9449 26.2984L85.2241 27.5775C85.0408 27.6442 84.7116 27.7401 84.2199 27.7442C82.9991 27.7692 81.8949 27.0692 81.8991 25.6234V20.9234H80.7324V19.6817H81.8991V17.7734H83.4491V19.6817H85.0824V20.9234H85.0783Z" fill="white"/>
<path d="M88.4992 27.6398H86.9492V17.0273H88.4784V20.9773H88.5784C88.9534 20.119 89.6992 19.5773 90.9367 19.5773C92.5742 19.5773 93.6617 20.5939 93.6617 22.5773V27.6398H92.1117V22.7649C92.1117 21.5982 91.4742 20.9189 90.4076 20.9189C89.3409 20.9189 88.4992 21.644 88.4992 22.9148V27.6398Z" fill="white"/>
<path d="M95.5273 17.5268C95.5273 17.0185 95.969 16.5977 96.5065 16.5977C97.044 16.5977 97.4857 17.0185 97.4857 17.5268C97.4857 18.0351 97.0398 18.4476 96.5065 18.4476C95.9732 18.4476 95.5273 18.031 95.5273 17.5268ZM95.7232 19.6768H97.2732V27.6352H95.7232V19.6768Z" fill="white"/>
<path d="M103.916 21.874C103.733 21.3406 103.291 20.8073 102.325 20.8073C101.446 20.8073 100.779 21.2406 100.787 21.8531C100.783 22.3906 101.162 22.6864 102.037 22.8948L103.3 23.1865C104.762 23.524 105.475 24.2198 105.475 25.3407C105.475 26.7823 104.141 27.8031 102.221 27.8031C100.433 27.8031 99.2622 27.0114 99.0039 25.5989L100.5 25.3699C100.687 26.1532 101.283 26.5531 102.208 26.5531C103.225 26.5531 103.883 26.0698 103.883 25.4532C103.883 24.9573 103.525 24.6156 102.758 24.4448L101.412 24.1489C99.9205 23.8156 99.2372 23.0657 99.2372 21.9365C99.2372 20.5282 100.512 19.5781 102.308 19.5781C104.104 19.5781 104.996 20.3865 105.321 21.624L103.916 21.874Z" fill="white"/>
<path d="M110.678 23.7115C110.678 21.2657 112.14 19.5781 114.357 19.5781C116.161 19.5781 117.882 20.7032 117.882 23.5782V24.1282H112.224C112.265 25.6615 113.157 26.524 114.482 26.524C115.361 26.524 116.036 26.1406 116.315 25.3906L117.782 25.6532C117.428 26.949 116.203 27.8031 114.465 27.8031C112.119 27.8031 110.678 26.1864 110.678 23.7156V23.7115ZM116.361 22.9657C116.357 21.749 115.569 20.8573 114.365 20.8573C113.161 20.8573 112.286 21.8365 112.224 22.9657H116.357H116.361Z" fill="white"/>
<path d="M123.387 20.9229H121.67V27.6396H120.116V20.9229H118.887V19.6813H120.116V18.7605C120.116 17.2688 121.22 16.5312 122.478 16.5312C123.103 16.5312 123.558 16.6604 123.774 16.7438L123.412 17.9979C123.266 17.9521 123.037 17.8772 122.716 17.8772C121.958 17.8772 121.67 18.2605 121.67 18.9646V19.6813H123.387V20.9229Z" fill="white"/>
<path d="M128.766 20.9229H127.049V27.6396H125.495V20.9229H124.266V19.6813H125.495V18.7605C125.495 17.2688 126.599 16.5312 127.857 16.5312C128.482 16.5312 128.937 16.6604 129.153 16.7438L128.791 17.9979C128.645 17.9521 128.416 17.8772 128.095 17.8772C127.336 17.8772 127.049 18.2605 127.049 18.9646V19.6813H128.766V20.9229Z" fill="white"/>
<path d="M129.686 23.6951C129.686 21.2201 131.152 19.5742 133.394 19.5742C135.636 19.5742 137.102 21.2159 137.102 23.6951C137.102 26.1743 135.636 27.7992 133.394 27.7992C131.152 27.7992 129.686 26.1576 129.686 23.6951ZM135.54 23.6909C135.54 22.1659 134.856 20.8743 133.398 20.8743C131.94 20.8743 131.248 22.1701 131.248 23.6909C131.248 25.2118 131.931 26.4993 133.398 26.4993C134.865 26.4993 135.54 25.2201 135.54 23.6909Z" fill="white"/>
<path d="M138.828 19.6794H140.324V20.942H140.407C140.699 20.0878 141.495 19.5586 142.428 19.5586C142.624 19.5586 142.932 19.5753 143.086 19.5961V21.0795C142.961 21.042 142.599 20.9878 142.278 20.9878C141.178 20.9878 140.378 21.7378 140.378 22.7794V27.642H138.828V19.6836V19.6794Z" fill="white"/>
<path d="M148.611 20.9234H146.978V25.3025C146.978 26.1984 147.428 26.3651 147.932 26.3651C148.182 26.3651 148.374 26.3193 148.478 26.2984L148.757 27.5775C148.574 27.6442 148.245 27.7401 147.753 27.7442C146.532 27.7692 145.428 27.0692 145.432 25.6234V20.9234H144.266V19.6817H145.432V17.7734H146.982V19.6817H148.616V20.9234H148.611Z" fill="white"/>
</svg>
